<svg id="Layer_1" data-name="Layer 1" xmlns="http://www.w3.org/2000/svg" xmlns:xlink="http://www.w3.org/1999/xlink" viewBox="0 0 317.3 204.26"><defs><style>.cls-1{fill:url(#radial-gradient);}.cls-2{fill:#fff;}</style><radialGradient id="radial-gradient" cx="-24.81" cy="-28.2" r="409.55" gradientUnits="userSpaceOnUse"><stop offset="0" stop-color="#188aa3"/><stop offset="1" stop-color="#159877"/></radialGradient></defs><title>card</title><rect class="cls-1" x="-434.36" y="-437.75" width="819.09" height="819.09"/><path class="cls-2" d="M27.08,137.43v-8.35H27l-3.44,8.35H22.4L19,129.08h-.09v8.35H17.59V126.5h1.58l3.74,9.12H23l3.74-9.12h1.59v10.93Z"/><path class="cls-2" d="M30.49,135.14c0-1.46,1.08-2.3,3-2.41l2.35-.15v-.74c0-1-.63-1.56-1.85-1.56-1,0-1.65.37-1.84,1H30.82c.17-1.32,1.46-2.18,3.2-2.18,2,0,3.1,1,3.1,2.72v5.59H35.88v-1.21h-.12a2.8,2.8,0,0,1-2.51,1.35A2.48,2.48,0,0,1,30.49,135.14Zm5.33-.76v-.74l-2.19.14c-1.25.08-1.79.51-1.79,1.33s.7,1.32,1.65,1.32A2.15,2.15,0,0,0,35.82,134.38Z"/><path class="cls-2" d="M39.12,133.35c0-2.56,1.36-4.23,3.43-4.23a2.79,2.79,0,0,1,2.56,1.43h.12V126h1.3v11.41H45.29v-1.3h-.12a2.93,2.93,0,0,1-2.62,1.44C40.46,137.57,39.12,135.91,39.12,133.35Zm1.35,0c0,1.91.9,3.05,2.39,3.05s2.4-1.17,2.4-3.05-.93-3-2.4-3S40.47,131.45,40.47,133.35Z"/><path class="cls-2" d="M55.77,135.32a3.26,3.26,0,0,1-3.44,2.25c-2.26,0-3.68-1.63-3.68-4.22s1.44-4.23,3.68-4.23,3.54,1.57,3.54,4.11v.5H50v.06c.06,1.61,1,2.63,2.35,2.63a2.12,2.12,0,0,0,2.11-1.1ZM50,132.67H54.5a2.2,2.2,0,0,0-2.18-2.4A2.32,2.32,0,0,0,50,132.67Z"/><path class="cls-2" d="M62.07,126.78a.91.91,0,1,1,.91.91A.91.91,0,0,1,62.07,126.78Zm.26,2.49h1.3v8.16h-1.3Z"/><path class="cls-2" d="M66.11,129.27h1.24v1.28h.13a2.45,2.45,0,0,1,2.45-1.43c1.83,0,2.85,1.08,2.85,3v5.29h-1.3v-5c0-1.47-.62-2.16-1.92-2.16a2.07,2.07,0,0,0-2.14,2.3v4.83H66.11Z"/><path class="cls-2" d="M79.71,137.43V126.5H81L87,135h.12V126.5h1.35v10.93H87.1L81.18,129h-.13v8.47Z"/><path class="cls-2" d="M97.76,135.32a3.26,3.26,0,0,1-3.44,2.25c-2.26,0-3.68-1.63-3.68-4.22s1.44-4.23,3.68-4.23,3.55,1.57,3.55,4.11v.5H92v.06c.06,1.61,1,2.63,2.35,2.63a2.12,2.12,0,0,0,2.11-1.1ZM92,132.67h4.49a2.2,2.2,0,0,0-2.18-2.4A2.33,2.33,0,0,0,92,132.67Z"/><path class="cls-2" d="M107.89,137.43h-1.32l-1.83-6.32h-.12l-1.82,6.32h-1.31l-2.29-8.16h1.32l1.6,6.52h.12l1.83-6.52h1.25l1.82,6.52h.12l1.61-6.52h1.31Z"/><path class="cls-2" d="M123.82,137.43v-5h-6v5h-1.37V126.5h1.37v4.73h6V126.5h1.37v10.93Z"/><path class="cls-2" d="M127.32,135.14c0-1.46,1.08-2.3,3-2.41l2.35-.15v-.74c0-1-.62-1.56-1.84-1.56-1,0-1.66.37-1.84,1h-1.32c.17-1.32,1.46-2.18,3.2-2.18,2,0,3.11,1,3.11,2.72v5.59h-1.24v-1.21h-.13a2.8,2.8,0,0,1-2.51,1.35A2.49,2.49,0,0,1,127.32,135.14Zm5.33-.76v-.74l-2.19.14c-1.24.08-1.79.51-1.79,1.33s.71,1.32,1.65,1.32A2.15,2.15,0,0,0,132.65,134.38Z"/><path class="cls-2" d="M139.71,137.43h-1.34l-3-8.16h1.39L139,136h.12l2.23-6.72h1.4Z"/><path class="cls-2" d="M150.87,135.32a3.25,3.25,0,0,1-3.43,2.25c-2.27,0-3.68-1.63-3.68-4.22s1.44-4.23,3.68-4.23,3.54,1.57,3.54,4.11v.5h-5.87v.06c.07,1.61,1,2.63,2.36,2.63a2.1,2.1,0,0,0,2.1-1.1Zm-5.76-2.65h4.5a2.2,2.2,0,0,0-2.19-2.4A2.33,2.33,0,0,0,145.11,132.67Z"/><path class="cls-2" d="M153,129.27h1.24v1.28h.12a2.45,2.45,0,0,1,2.45-1.43c1.83,0,2.86,1.08,2.86,3v5.29h-1.31v-5c0-1.47-.62-2.16-1.92-2.16a2.07,2.07,0,0,0-2.14,2.3v4.83H153Z"/><path class="cls-2" d="M17.59,44.43v-.54a17,17,0,0,0,2.39-.3c1.6-.36,1.57-1.38,1.57-2.79v-17c0-1.42,0-2.44-1.57-2.8a17,17,0,0,0-2.39-.29V20.2H40.4v9.05h-.55a16.63,16.63,0,0,0-3.23-6A5.75,5.75,0,0,0,31.53,21c-2.25,0-2.54.18-2.54,2.47V31h.55c3.41,0,4-3.12,4.54-5.73h.51V38h-.51c-.22-2.43-1.6-6.25-4.58-6.25H29v8.87c0,2.65.33,3.05,3,3.05a6.27,6.27,0,0,0,5.37-2.58A16.87,16.87,0,0,0,40.8,34h.54V44.43Z"/><path class="cls-2" d="M52.23,44.43v-.54c.91,0,2.4-.15,2.4-1.38a4.28,4.28,0,0,0-.87-2.15L51.62,37c-.87,1.27-2.73,3.63-2.73,5.3,0,1.27,1.16,1.49,2.22,1.64v.54h-8v-.54c4.07-.77,6-4.58,8.06-7.7l-3.34-5.53c-1.16-1.92-1.74-2.87-4.07-3.12V27H57.28v.51c-.69.07-2.25.15-2.25,1.13a4.21,4.21,0,0,0,.73,1.67l2,3.27c.65-1,2.51-3.42,2.51-4.73,0-1.16-1.06-1.23-2-1.34V27h7.23v.51c-3.2.51-5.63,4.29-7.34,6.76l4.43,7.22c1,1.6,1.56,2.29,3.52,2.37v.54Z"/><path class="cls-2" d="M82.09,44.9c-2.83,0-4.29-1.16-5.52-3.63V50c0,2.07,1,2.18,2.87,2.4v.51H66.65v-.51c1.89-.22,2.87-.29,2.87-2.4V29.76c0-2-1.09-2.11-2.87-2.22V27c2.47-.14,4.9-.18,7.37-.18.84,0,1.71,0,2.55-.11v4c1-2.58,2.5-4.25,5.45-4.25a8.92,8.92,0,0,1,8.71,9.19C90.73,40.58,87.14,44.9,82.09,44.9ZM80.27,27.83c-3.16,0-3.7,5.7-3.7,7.88s.36,7.88,3.52,7.88c1.27,0,2-1,2.29-2.1a23.62,23.62,0,0,0,.54-6.39C82.92,33.28,83.07,27.83,80.27,27.83Z"/><path class="cls-2" d="M100.9,35.06a3.6,3.6,0,0,0,0,.65,21.92,21.92,0,0,0,.62,6,3.44,3.44,0,0,0,3.6,2.4,6.56,6.56,0,0,0,5.12-2.33,5.29,5.29,0,0,0,1.23-3.08h.77c-.69,4.54-4,6.24-8.32,6.24-5.34,0-10.5-3.41-10.5-9.19,0-5.37,4.58-9.15,9.77-9.15,5,0,9.26,3.27,9.26,8.5Zm2.36-7.85c-2,0-2.14,2.55-2.25,4-.07,1.09-.11,2.14-.11,3.23h2.43c1.89,0,2.11-.33,2.11-2.18C105.44,30.77,105.48,27.21,103.26,27.21Z"/><path class="cls-2" d="M128.9,33.17c-2,0-2.9-1.09-3.12-2.94,0-.15,0-.76-.33-.76-1.52,0-1.49,6.32-1.49,7.19v4.86c0,2.11,1,2.18,2.87,2.37v.54H114.05v-.54c1.88-.19,2.87-.26,2.87-2.37V29.79c0-2-1-2.1-2.84-2.25V27c3.2,0,6.43,0,9.63-.25V31c.83-2.36,2.36-4.51,5.12-4.51a3.44,3.44,0,0,1,3.63,3.31A3.48,3.48,0,0,1,128.9,33.17Z"/><path class="cls-2" d="M133.15,44.43v-.54c1.89-.19,2.87-.26,2.87-2.37V29.87c0-2.11-1-2.18-2.84-2.33l0-.51c3.3,0,6.61,0,9.91-.25V40.73c0,2.57.15,2.86,2.87,3.16v.54Zm6.65-19.9C138,24.53,136,23.4,136,21.4s2.07-3.09,3.85-3.09,3.84,1.09,3.84,3.09S141.57,24.53,139.8,24.53Z"/><path class="cls-2" d="M172.19,44.43v-.54c1.71-.15,2-.59,2-2.26V32.12c0-.73.07-3-.58-3.49a1.36,1.36,0,0,0-.76-.18c-3,0-3.85,5.08-3.85,7.26v5.92c0,1.75.43,2.15,2.18,2.26v.54H160v-.54c1.71-.15,2-.59,2-2.26V30.77c0-.87-.07-2.29-1.27-2.29-3.05,0-3.82,5.49-3.82,7.67v5.48c0,1.67.29,2.11,2,2.26v.54H147v-.54c1.89-.19,2.87-.26,2.87-2.37V29.79c0-2-1.09-2.1-2.87-2.25V27c3.27,0,6.54,0,9.8-.25v4.94a8.38,8.38,0,0,1,2-3.27,7.43,7.43,0,0,1,5.05-1.93,5.61,5.61,0,0,1,4.07,1.53,5.05,5.05,0,0,1,1.16,3.09c1.42-2.84,3.74-4.62,7-4.62,2.51,0,4.94,1.31,5.16,4a20.43,20.43,0,0,1,0,2.07v8.89c0,2.11,1,2.18,2.87,2.37v.54Z"/><path class="cls-2" d="M193.36,35.06a4.79,4.79,0,0,0,0,.65,21.92,21.92,0,0,0,.61,6,3.46,3.46,0,0,0,3.6,2.4,6.56,6.56,0,0,0,5.12-2.33,5.23,5.23,0,0,0,1.24-3.08h.76c-.69,4.54-4,6.24-8.32,6.24-5.34,0-10.5-3.41-10.5-9.19,0-5.37,4.58-9.15,9.77-9.15,5,0,9.27,3.27,9.27,8.5Zm2.36-7.85c-2,0-2.14,2.55-2.25,4-.07,1.09-.11,2.14-.11,3.23h2.44c1.88,0,2.1-.33,2.1-2.18C197.9,30.77,197.94,27.21,195.72,27.21Z"/><path class="cls-2" d="M220,44.43v-.54c1.67-.15,2-.59,2-2.26v-9.8c0-1.2.1-3.35-1.57-3.35s-2.79,1.82-3.23,3.24a21.9,21.9,0,0,0-.73,6.5v3.41c0,1.93.69,2.15,2.51,2.26v.54H206.51v-.54c1.89-.19,2.87-.26,2.87-2.37V29.83c0-2.07-1-2.14-2.87-2.29V27c3.27,0,6.57,0,9.81-.25v5.37A7.87,7.87,0,0,1,218,28.81a7.5,7.5,0,0,1,5.59-2.29c1.82,0,4,.69,4.87,2.44.72,1.45.51,3.63.51,5.23v7.33c0,2.11,1,2.18,2.87,2.37v.54Z"/><path class="cls-2" d="M241.81,44.9c-1.53,0-4-.18-5.16-1.27s-1.27-3.49-1.27-5.16V27.65h-2.87V27c2.14,0,3.63-.47,4.87-2.32a9,9,0,0,0,1.38-4.51h3.63V27h5.09v.73h-5.09V39.6c0,1.74-.25,4,2.11,4,2.79,0,3.16-2.94,3.19-5.12h.73V39C248.42,43.45,246.06,44.9,241.81,44.9Z"/><path class="cls-2" d="M266.51,44.9c-2.84,0-5.27-.54-5.34-3.85a6.58,6.58,0,0,1-1.93,2.4,7.56,7.56,0,0,1-4.47,1.45c-2.54,0-4.65-1.38-4.65-4.1,0-3.53,3.71-4.94,6.54-5.67,1.53-.4,3-.76,4.58-1.2V32.15c0-1.2.07-3.88-1.09-4.65a2.84,2.84,0,0,0-1.56-.32c-.84,0-2.58.29-2.58,1.41,0,.59,1.52.91,1.52,2.55,0,1.81-1.74,2.76-3.37,2.76a2.8,2.8,0,0,1-3.09-2.76c0-3.93,5.41-4.62,8.32-4.62A13.43,13.43,0,0,1,266,27.94c1.89,1.13,2.22,2.47,2.22,4.58v8.21c0,.4,0,.9,0,1.3,0,.69.1,1.24.9,1.24,1.53,0,1.82-2.18,1.89-3.31h.66C271.7,43.59,270,44.9,266.51,44.9Zm-5.27-10.24c-2.94.8-4.07,2-4.07,5.12,0,.87.07,2.65,1.31,2.65,2.32,0,2.76-3.7,2.76-5.37Z"/><path class="cls-2" d="M272.17,44.43v-.54c1.89-.19,2.87-.26,2.87-2.37V23c0-2-1.09-2.1-2.87-2.21V20.2a82.19,82.19,0,0,0,9.91-.47v21c0,2.57.15,2.9,2.87,3.16v.54Z"/><path class="cls-2" d="M32.08,88H17.59v-.54A20,20,0,0,0,20,87.18c1.6-.37,1.6-1.35,1.6-2.8v-17c0-1.46,0-2.44-1.6-2.8a18.08,18.08,0,0,0-2.36-.29v-.55H32.08c7.41,0,13.51,4.29,13.51,12.14S39.49,88,32.08,88Zm-.62-23.39c-2,0-2.47.25-2.47,2.29v18c0,2,.55,2.29,2.47,2.29,5.67,0,6.29-7.08,6.29-11.29S37.13,64.62,31.46,64.62Z"/><path class="cls-2" d="M55.76,78.64a3.6,3.6,0,0,0,0,.65,21.5,21.5,0,0,0,.62,6,3.44,3.44,0,0,0,3.59,2.4,6.53,6.53,0,0,0,5.12-2.33,5.23,5.23,0,0,0,1.24-3.08h.76c-.69,4.54-4,6.24-8.31,6.24-5.34,0-10.5-3.41-10.5-9.19,0-5.37,4.57-9.15,9.77-9.15,5,0,9.26,3.27,9.26,8.5Zm2.36-7.85c-2,0-2.15,2.55-2.25,4-.08,1.09-.11,2.14-.11,3.23h2.43c1.89,0,2.11-.32,2.11-2.18C60.3,74.35,60.33,70.79,58.12,70.79Z"/><path class="cls-2" d="M77.91,88.48a10.3,10.3,0,0,1-4-.79,7.47,7.47,0,0,0-2-.77c-.73,0-1.31.84-1.71,1.35h-.54V80.82h.51c1.23,3.52,3.34,7.05,7.52,7.05,1.52,0,3.81-.77,3.81-2.62a1.8,1.8,0,0,0-.29-1.13c-.65-.87-3.09-1.48-4.07-1.77-3.16-.91-7.26-2-7.26-6.07s4-6.21,7.73-6.21a9.69,9.69,0,0,1,3.38.58,6.66,6.66,0,0,0,1.82.58A1.69,1.69,0,0,0,84,70.36h.55V76h-.51c-1-2.76-3.12-5.23-6.28-5.23-1.17,0-3.38.47-3.38,2,0,1.3,1.7,1.59,2.68,1.88l3.17,1c3,.94,5.77,2.32,5.77,5.92C86,85.83,81.87,88.48,77.91,88.48Z"/><path class="cls-2" d="M87.57,88v-.54c1.89-.18,2.87-.26,2.87-2.36V73.45c0-2.11-1-2.18-2.83-2.33l0-.51c3.31,0,6.61,0,9.92-.25v14c0,2.58.14,2.87,2.87,3.16V88Zm6.65-19.9c-1.78,0-3.85-1.13-3.85-3.13s2.07-3.08,3.85-3.08S98.07,63,98.07,65,96,68.11,94.22,68.11Z"/><path class="cls-2" d="M121.13,71.34c-.76,0-1.27-.4-1.67-.4a.37.37,0,0,0-.4.33,1.3,1.3,0,0,0,.25.61c.88,1.35,1.53,2,1.53,3.71,0,5.12-6.18,6-10.1,6h-2.1c-.84,0-3.75-.22-3.75,1.16,0,1.09,1.27,1.13,2.07,1.16,2.11.08,4.25.08,6.36.08s5.09,0,6.94,1.16a5.51,5.51,0,0,1,2.4,4.72c0,6-6.76,7.85-11.63,7.85-2.61,0-9.73-.69-9.73-4.51,0-3,3.88-3.27,6.1-3.45-3-.29-5.49-.65-5.49-4.18A4.19,4.19,0,0,1,103.77,82a6.2,6.2,0,0,1,3.41-.91,7.33,7.33,0,0,1-2.83-1.38,4.92,4.92,0,0,1-2-3.74c0-4.61,5.77-5.89,9.37-5.89a11.63,11.63,0,0,1,7.08,2,4.77,4.77,0,0,1-1-2.84A3.08,3.08,0,0,1,121,66a2.73,2.73,0,0,1,2.91,2.68A2.6,2.6,0,0,1,121.13,71.34Zm-3.41,19.32a18.17,18.17,0,0,0-5.42-.61c-1,0-2,0-3,.07-2,0-4.25.36-4.25,2.83,0,3.45,3.85,4.14,6.57,4.14s7.63-.65,7.63-4.17A2.37,2.37,0,0,0,117.72,90.66Zm-6.11-19.9c-2.32,0-2.36,3.74-2.36,5.3s.08,4.91,2.4,4.91S114,77.48,114,75.88,114,70.76,111.61,70.76Z"/><path class="cls-2" d="M137.69,88v-.54c1.67-.15,2-.58,2-2.26v-9.8c0-1.2.11-3.34-1.56-3.34s-2.8,1.81-3.24,3.23a21.93,21.93,0,0,0-.72,6.5v3.41c0,1.93.69,2.15,2.5,2.26V88H124.25v-.54c1.89-.18,2.87-.26,2.87-2.36V73.41c0-2.07-1-2.14-2.87-2.29v-.51c3.27,0,6.57,0,9.81-.25v5.37a7.87,7.87,0,0,1,1.67-3.34,7.5,7.5,0,0,1,5.59-2.29c1.82,0,4,.69,4.87,2.44.72,1.45.51,3.63.51,5.23v7.34c0,2.1,1,2.18,2.87,2.36V88Z"/><path class="cls-2" d="M155.88,88.27A3.72,3.72,0,0,1,152,84.71a3.85,3.85,0,1,1,3.85,3.56Z"/></svg>